<svg width="21" height="20" viewBox="0 0 21 20" fill="none" xmlns="http://www.w3.org/2000/svg">
<path d="M17.793 8.1336C17.6295 8.16096 17.4836 8.25213 17.3873 8.38707C17.2911 8.52201 17.2523 8.68965 17.2797 8.85313C17.3432 9.23213 17.375 9.61574 17.375 10C17.3765 11.683 16.7579 13.3075 15.6375 14.5633C14.9404 13.5532 13.9603 12.7717 12.8203 12.3172C13.4327 11.8349 13.8795 11.1737 14.0987 10.4257C14.3179 9.67767 14.2985 8.87992 14.0433 8.1434C13.7881 7.40688 13.3097 6.7682 12.6746 6.31617C12.0396 5.86415 11.2795 5.62124 10.5 5.62124C9.72051 5.62124 8.9604 5.86415 8.32536 6.31617C7.69033 6.7682 7.21193 7.40688 6.95671 8.1434C6.70149 8.87992 6.68212 9.67767 6.90131 10.4257C7.12049 11.1737 7.56733 11.8349 8.17969 12.3172C7.0397 12.7717 6.05956 13.5532 5.3625 14.5633C4.48338 13.5726 3.90912 12.3491 3.70879 11.0399C3.50845 9.73064 3.69057 8.3914 4.23323 7.18319C4.7759 5.97498 5.65602 4.94924 6.76775 4.22931C7.87949 3.50938 9.17552 3.12591 10.5 3.12501C10.8843 3.12495 11.2679 3.15683 11.6469 3.22032C11.8096 3.246 11.9759 3.20638 12.1096 3.11008C12.2433 3.01378 12.3335 2.86859 12.3607 2.70609C12.3879 2.54359 12.3498 2.37693 12.2548 2.24236C12.1597 2.10779 12.0154 2.0162 11.8531 1.98751C10.1558 1.70197 8.41167 1.96324 6.87253 2.73358C5.33338 3.50393 4.07888 4.74348 3.29015 6.27329C2.50141 7.80309 2.21926 9.54397 2.48444 11.2446C2.74961 12.9452 3.54838 14.5175 4.76543 15.7346C5.98247 16.9516 7.55481 17.7504 9.25542 18.0156C10.956 18.2807 12.6969 17.9986 14.2267 17.2099C15.7565 16.4211 16.9961 15.1666 17.7664 13.6275C18.5368 12.0883 18.798 10.3442 18.5125 8.64688C18.4851 8.48341 18.394 8.33749 18.259 8.24123C18.1241 8.14498 17.9565 8.10626 17.793 8.1336ZM8 9.37501C8 8.88056 8.14662 8.39721 8.42133 7.98608C8.69603 7.57496 9.08648 7.25453 9.54329 7.06531C10.0001 6.87609 10.5028 6.82658 10.9877 6.92305C11.4727 7.01951 11.9181 7.25761 12.2678 7.60724C12.6174 7.95687 12.8555 8.40233 12.952 8.88728C13.0484 9.37224 12.9989 9.8749 12.8097 10.3317C12.6205 10.7885 12.3 11.179 11.8889 11.4537C11.4778 11.7284 10.9945 11.875 10.5 11.875C9.83696 11.875 9.20108 11.6116 8.73223 11.1428C8.26339 10.6739 8 10.0381 8 9.37501ZM6.2875 15.4297C6.73964 14.7226 7.36251 14.1406 8.09869 13.7376C8.83488 13.3345 9.66069 13.1232 10.5 13.1232C11.3393 13.1232 12.1651 13.3345 12.9013 13.7376C13.6375 14.1406 14.2604 14.7226 14.7125 15.4297C13.5081 16.3664 12.0258 16.875 10.5 16.875C8.9742 16.875 7.49193 16.3664 6.2875 15.4297ZM19.0672 3.5672L16.5672 6.0672C16.5091 6.12531 16.4402 6.17141 16.3643 6.20286C16.2885 6.23431 16.2071 6.2505 16.125 6.2505C16.0429 6.2505 15.9615 6.23431 15.8857 6.20286C15.8098 6.17141 15.7409 6.12531 15.6828 6.0672L14.4328 4.8172C14.3747 4.75913 14.3287 4.69019 14.2973 4.61432C14.2658 4.53845 14.2497 4.45713 14.2497 4.37501C14.2497 4.29289 14.2658 4.21157 14.2973 4.1357C14.3287 4.05983 14.3747 3.99089 14.4328 3.93282C14.5501 3.81555 14.7091 3.74966 14.875 3.74966C14.9571 3.74966 15.0384 3.76584 15.1143 3.79726C15.1902 3.82869 15.2591 3.87475 15.3172 3.93282L16.125 4.74142L18.1828 2.68282C18.2409 2.62475 18.3098 2.57869 18.3857 2.54726C18.4616 2.51584 18.5429 2.49966 18.625 2.49966C18.7071 2.49966 18.7884 2.51584 18.8643 2.54726C18.9402 2.57869 19.0091 2.62475 19.0672 2.68282C19.1253 2.74089 19.1713 2.80983 19.2027 2.8857C19.2342 2.96157 19.2503 3.04289 19.2503 3.12501C19.2503 3.20713 19.2342 3.28845 19.2027 3.36432C19.1713 3.44019 19.1253 3.50913 19.0672 3.5672Z" fill="white"/>
</svg>
