<svg width="1723" height="933" viewBox="0 0 1723 933" fill="none" xmlns="http://www.w3.org/2000/svg">
<path opacity="0.05" fill-rule="evenodd" clip-rule="evenodd" d="M50.2763 37.911V84.4393H0V85.58H50.2763V132.108H0V133.249H50.2763V179.777H0V180.918H50.2763V227.446H0V228.587H50.2763V275.115H0V276.256H50.2763V322.784H0V323.925H50.2763V370.453H0V371.594H50.2763V418.122H0V419.263H50.2763V465.791H0V466.932H50.2763V513.46H0V514.601H50.2763V561.129H0V562.27H50.2763V608.798H0V609.939H50.2763V656.467H0V657.608H50.2763V704.136H0V705.277H50.2763V751.805H0V752.946H50.2763V799.474H0V800.615H50.2763V847.143H0V848.284H50.2763V894.812H0V895.953H50.2763V932.723H51.4169V895.953H97.9453V932.723H99.086V895.953H145.614V932.723H146.755V895.953H193.283V932.723H194.424V895.953H240.952V932.723H242.093V895.953H288.621V932.723H289.762V895.953H336.29V932.723H337.431V895.953H383.959V932.723H385.1V895.953H431.628V932.723H432.769V895.953H479.297V932.723H480.438V895.953H526.966V932.723H528.107V895.953H574.635V932.723H575.776V895.953H622.304V932.723H623.445V895.953H669.973V932.723H671.114V895.953H717.642V932.723H718.783V895.953H765.311V932.723H766.452V895.953H812.98V932.723H814.121V895.953H860.649V932.723H861.79V895.953H908.318V932.723H909.459V895.953H955.987V932.723H957.128V895.953H1003.66V932.723H1004.8V895.953H1051.32V932.723H1052.47V895.953H1098.99V932.723H1100.13V895.953H1146.66V932.723H1147.8V895.953H1194.33V932.723H1195.47V895.953H1242V932.723H1243.14V895.953H1289.67V932.723H1290.81V895.953H1337.34V932.723H1338.48V895.953H1385.01V932.723H1386.15V895.953H1432.68V932.723H1433.82V895.953H1480.35V932.723H1481.49V895.953H1528.01V932.723H1529.16V895.953H1575.68V932.723H1576.82V895.953H1623.35V932.723H1624.49V895.953H1671.02V932.723H1672.16V895.953H1722.44V894.812H1672.16V848.284H1722.44V847.143H1672.16V800.615H1722.44V799.474H1672.16V752.946H1722.44V751.805H1672.16V705.277H1722.44V704.136H1672.16V657.608H1722.44V656.467H1672.16V609.939H1722.44V608.798H1672.16V562.27H1722.44V561.129H1672.16V514.601H1722.44V513.46H1672.16V466.932H1722.44V465.791H1672.16V419.263H1722.44V418.122H1672.16V371.594H1722.44V370.453H1672.16V323.925H1722.44V322.784H1672.16V276.256H1722.44V275.115H1672.16V228.587H1722.44V227.446H1672.16V180.918H1722.44V179.777H1672.16V133.249H1722.44V132.108H1672.16V85.58H1722.44V84.4393H1672.16V37.911H1722.44V36.7704H1672.16V0H1671.02V36.7704L1624.49 36.7704V0H1623.35V36.7704H1576.82V0H1575.68V36.7704H1529.16V0H1528.01V36.7704H1481.49V0H1480.35V36.7704L1433.82 36.7704V0H1432.68V36.7704H1386.15V0H1385.01V36.7704H1338.48V0H1337.34V36.7704H1290.81V0H1289.67V36.7704L1243.14 36.7703V0H1242V36.7703H1195.47V0H1194.33V36.7703H1147.8V0H1146.66V36.7703H1100.13V0H1098.99V36.7703L1052.47 36.7703V0H1051.32V36.7703H1004.8V0H1003.66V36.7703H957.128V0H955.987V36.7703H909.459V0H908.318V36.7703H861.79V0H860.649V36.7703H814.121V0H812.98V36.7703H766.452V0H765.311V36.7703H718.783V0H717.642V36.7703H671.114V0H669.973V36.7703L623.445 36.7703V0H622.304V36.7703H575.776V0H574.635V36.7703H528.107V0H526.966V36.7703H480.438V0H479.297V36.7703L432.769 36.7703V0H431.628V36.7703H385.1V0H383.959V36.7703H337.431V0H336.29V36.7703H289.762V0H288.621V36.7703L242.093 36.7703V0H240.952V36.7703H194.424V0H193.283V36.7703H146.755V0H145.614V36.7703H99.086V0H97.9453V36.7703L51.4169 36.7703V0H50.2763V36.7703H0V37.911H50.2763ZM1671.02 894.812V848.284H1624.49V894.812H1671.02ZM1623.35 894.812V848.284H1576.82V894.812H1623.35ZM1575.68 894.812V848.284H1529.16V894.812H1575.68ZM1528.01 894.812V848.284H1481.49V894.812H1528.01ZM1480.35 894.812V848.284H1433.82V894.812H1480.35ZM1432.68 894.812V848.284H1386.15V894.812H1432.68ZM1385.01 894.812V848.284H1338.48V894.812H1385.01ZM1337.34 894.812V848.284H1290.81V894.812H1337.34ZM1289.67 894.812V848.284H1243.14V894.812H1289.67ZM1242 894.812V848.284H1195.47V894.812H1242ZM1194.33 894.812V848.284H1147.8V894.812H1194.33ZM1146.66 894.812V848.284H1100.13V894.812H1146.66ZM1098.99 894.812V848.284H1052.47V894.812H1098.99ZM1051.32 894.812V848.284H1004.8V894.812H1051.32ZM1003.66 894.812V848.284H957.128V894.812H1003.66ZM955.987 894.812V848.284H909.459V894.812H955.987ZM908.318 894.812V848.284H861.79V894.812H908.318ZM860.649 894.812V848.284H814.121V894.812H860.649ZM812.98 894.812V848.284H766.452V894.812H812.98ZM765.311 894.812V848.284H718.783V894.812H765.311ZM717.642 894.812V848.284H671.114V894.812H717.642ZM669.973 894.812V848.284H623.445V894.812H669.973ZM622.304 894.812V848.284H575.776V894.812H622.304ZM574.635 894.812V848.284H528.107V894.812H574.635ZM526.966 894.812V848.284H480.438V894.812H526.966ZM479.297 894.812V848.284H432.769V894.812H479.297ZM431.628 894.812V848.284H385.1V894.812H431.628ZM383.959 894.812V848.284H337.431V894.812H383.959ZM336.29 894.812V848.284H289.762V894.812H336.29ZM288.621 894.812V848.284H242.093V894.812H288.621ZM240.952 894.812V848.284H194.424V894.812H240.952ZM193.283 894.812V848.284H146.755V894.812H193.283ZM145.614 894.812V848.284H99.086V894.812H145.614ZM97.9453 894.812V848.284H51.4169V894.812H97.9453ZM97.9453 847.143H51.4169V800.615H97.9453V847.143ZM145.614 847.143H99.086V800.615H145.614V847.143ZM193.283 847.143H146.755V800.615H193.283V847.143ZM240.952 847.143H194.424V800.615H240.952V847.143ZM288.621 847.143H242.093V800.615H288.621V847.143ZM336.29 847.143H289.762V800.615H336.29V847.143ZM383.959 847.143H337.431V800.615H383.959V847.143ZM431.628 847.143H385.1V800.615H431.628V847.143ZM479.297 847.143H432.769V800.615H479.297V847.143ZM526.966 847.143H480.438V800.615H526.966V847.143ZM574.635 847.143H528.107V800.615H574.635V847.143ZM622.304 847.143H575.776V800.615H622.304V847.143ZM669.973 847.143H623.445V800.615H669.973V847.143ZM717.642 847.143H671.114V800.615H717.642V847.143ZM765.311 847.143H718.783V800.615H765.311V847.143ZM812.98 847.143H766.452V800.615H812.98V847.143ZM860.649 847.143H814.121V800.615H860.649V847.143ZM908.318 847.143H861.79V800.615H908.318V847.143ZM955.987 847.143H909.459V800.615H955.987V847.143ZM1003.66 847.143H957.128V800.615H1003.66V847.143ZM1051.32 847.143H1004.8V800.615H1051.32V847.143ZM1098.99 847.143H1052.47V800.615H1098.99V847.143ZM1146.66 847.143H1100.13V800.615H1146.66V847.143ZM1194.33 847.143H1147.8V800.615H1194.33V847.143ZM1242 847.143H1195.47V800.615H1242V847.143ZM1289.67 847.143H1243.14V800.615H1289.67V847.143ZM1337.34 847.143H1290.81V800.615H1337.34V847.143ZM1385.01 847.143H1338.48V800.615H1385.01V847.143ZM1432.68 847.143H1386.15V800.615H1432.68V847.143ZM1480.35 847.143H1433.82V800.615H1480.35V847.143ZM1528.01 847.143H1481.49V800.615H1528.01V847.143ZM1575.68 847.143H1529.16V800.615H1575.68V847.143ZM1623.35 847.143H1576.82V800.615H1623.35V847.143ZM1671.02 847.143H1624.49V800.615H1671.02V847.143ZM1671.02 799.474V752.946H1624.49V799.474H1671.02ZM1623.35 799.474V752.946H1576.82V799.474H1623.35ZM1575.68 799.474V752.946H1529.16V799.474H1575.68ZM1528.01 799.474V752.946H1481.49V799.474H1528.01ZM1480.35 799.474V752.946H1433.82V799.474H1480.35ZM1432.68 799.474V752.946H1386.15V799.474H1432.68ZM1385.01 799.474V752.946H1338.48V799.474H1385.01ZM1337.34 799.474V752.946H1290.81V799.474H1337.34ZM1289.67 799.474V752.946H1243.14V799.474H1289.67ZM1242 799.474V752.946H1195.47V799.474H1242ZM1194.33 799.474V752.946H1147.8V799.474H1194.33ZM1146.66 799.474V752.946H1100.13V799.474H1146.66ZM1098.99 799.474V752.946H1052.47V799.474H1098.99ZM1051.32 799.474V752.946H1004.8V799.474H1051.32ZM1003.66 799.474V752.946H957.128V799.474H1003.66ZM955.987 799.474V752.946H909.459V799.474H955.987ZM908.318 799.474V752.946H861.79V799.474H908.318ZM860.649 799.474V752.946H814.121V799.474H860.649ZM812.98 799.474V752.946H766.452V799.474H812.98ZM765.311 799.474V752.946H718.783V799.474H765.311ZM717.642 799.474V752.946H671.114V799.474H717.642ZM669.973 799.474V752.946H623.445V799.474H669.973ZM622.304 799.474V752.946H575.776V799.474H622.304ZM574.635 799.474V752.946H528.107V799.474H574.635ZM526.966 799.474V752.946H480.438V799.474H526.966ZM479.297 799.474V752.946H432.769V799.474H479.297ZM431.628 799.474V752.946H385.1V799.474H431.628ZM383.959 799.474V752.946H337.431V799.474H383.959ZM336.29 799.474V752.946H289.762V799.474H336.29ZM288.621 799.474V752.946H242.093V799.474H288.621ZM240.952 799.474V752.946H194.424V799.474H240.952ZM193.283 799.474V752.946H146.755V799.474H193.283ZM145.614 799.474V752.946H99.086V799.474H145.614ZM97.9453 799.474V752.946H51.4169V799.474H97.9453ZM97.9453 751.805H51.4169V705.277H97.9453V751.805ZM145.614 751.805H99.086V705.277H145.614V751.805ZM193.283 751.805H146.755V705.277H193.283V751.805ZM240.952 751.805H194.424V705.277H240.952V751.805ZM288.621 751.805H242.093V705.277H288.621V751.805ZM336.29 751.805H289.762V705.277H336.29V751.805ZM383.959 751.805H337.431V705.277H383.959V751.805ZM431.628 751.805H385.1V705.277H431.628V751.805ZM479.297 751.805H432.769V705.277H479.297V751.805ZM526.966 751.805H480.438V705.277H526.966V751.805ZM574.635 751.805H528.107V705.277H574.635V751.805ZM622.304 751.805H575.776V705.277H622.304V751.805ZM669.973 751.805H623.445V705.277H669.973V751.805ZM717.642 751.805H671.114V705.277H717.642V751.805ZM765.311 751.805H718.783V705.277H765.311V751.805ZM812.98 751.805H766.452V705.277H812.98V751.805ZM860.649 751.805H814.121V705.277H860.649V751.805ZM908.318 751.805H861.79V705.277H908.318V751.805ZM955.987 751.805H909.459V705.277H955.987V751.805ZM1003.66 751.805H957.128V705.277H1003.66V751.805ZM1051.32 751.805H1004.8V705.277H1051.32V751.805ZM1098.99 751.805H1052.47V705.277H1098.99V751.805ZM1146.66 751.805H1100.13V705.277H1146.66V751.805ZM1194.33 751.805H1147.8V705.277H1194.33V751.805ZM1242 751.805H1195.47V705.277H1242V751.805ZM1289.67 751.805H1243.14V705.277H1289.67V751.805ZM1337.34 751.805H1290.81V705.277H1337.34V751.805ZM1385.01 751.805H1338.48V705.277H1385.01V751.805ZM1432.68 751.805H1386.15V705.277H1432.68V751.805ZM1480.35 751.805H1433.82V705.277H1480.35V751.805ZM1528.01 751.805H1481.49V705.277H1528.01V751.805ZM1575.68 751.805H1529.16V705.277H1575.68V751.805ZM1623.35 751.805H1576.82V705.277H1623.35V751.805ZM1671.02 751.805H1624.49V705.277H1671.02V751.805ZM1671.02 704.136V657.608H1624.49V704.136H1671.02ZM1623.35 704.136V657.608H1576.82V704.136H1623.35ZM1575.68 704.136V657.608H1529.16V704.136H1575.68ZM1528.01 704.136V657.608H1481.49V704.136H1528.01ZM1480.35 704.136V657.608H1433.82V704.136H1480.35ZM1432.68 704.136V657.608H1386.15V704.136H1432.68ZM1385.01 704.136V657.608H1338.48V704.136H1385.01ZM1337.34 704.136V657.608H1290.81V704.136H1337.34ZM1289.67 704.136V657.608H1243.14V704.136H1289.67ZM1242 704.136V657.608H1195.47V704.136H1242ZM1194.33 704.136V657.608H1147.8V704.136H1194.33ZM1146.66 704.136V657.608H1100.13V704.136H1146.66ZM1098.99 704.136V657.608H1052.47V704.136H1098.99ZM1051.32 704.136V657.608H1004.8V704.136H1051.32ZM1003.66 704.136V657.608H957.128V704.136H1003.66ZM955.987 704.136V657.608H909.459V704.136H955.987ZM908.318 704.136V657.608H861.79V704.136H908.318ZM860.649 704.136V657.608H814.121V704.136H860.649ZM812.98 704.136V657.608H766.452V704.136H812.98ZM765.311 704.136V657.608H718.783V704.136H765.311ZM717.642 704.136V657.608H671.114V704.136H717.642ZM669.973 704.136V657.608H623.445V704.136H669.973ZM622.304 704.136V657.608H575.776V704.136H622.304ZM574.635 704.136V657.608H528.107V704.136H574.635ZM526.966 704.136V657.608H480.438V704.136H526.966ZM479.297 704.136V657.608H432.769V704.136H479.297ZM431.628 704.136V657.608H385.1V704.136H431.628ZM383.959 704.136V657.608H337.431V704.136H383.959ZM336.29 704.136V657.608H289.762V704.136H336.29ZM288.621 704.136V657.608H242.093V704.136H288.621ZM240.952 704.136V657.608H194.424V704.136H240.952ZM193.283 704.136V657.608H146.755V704.136H193.283ZM145.614 704.136V657.608H99.086V704.136H145.614ZM97.9453 704.136V657.608H51.4169V704.136H97.9453ZM97.9453 656.467H51.4169V609.939H97.9453V656.467ZM145.614 656.467H99.086V609.939H145.614V656.467ZM193.283 656.467H146.755V609.939H193.283V656.467ZM240.952 656.467H194.424V609.939H240.952V656.467ZM288.621 656.467H242.093V609.939H288.621V656.467ZM336.29 656.467H289.762V609.939H336.29V656.467ZM383.959 656.467H337.431V609.939H383.959V656.467ZM431.628 656.467H385.1V609.939H431.628V656.467ZM479.297 656.467H432.769V609.939H479.297V656.467ZM526.966 656.467H480.438V609.939H526.966V656.467ZM574.635 656.467H528.107V609.939H574.635V656.467ZM622.304 656.467H575.776V609.939H622.304V656.467ZM669.973 656.467H623.445V609.939H669.973V656.467ZM717.642 656.467H671.114V609.939H717.642V656.467ZM765.311 656.467H718.783V609.939H765.311V656.467ZM812.98 656.467H766.452V609.939H812.98V656.467ZM860.649 656.467H814.121V609.939H860.649V656.467ZM908.318 656.467H861.79V609.939H908.318V656.467ZM955.987 656.467H909.459V609.939H955.987V656.467ZM1003.66 656.467H957.128V609.939H1003.66V656.467ZM1051.32 656.467H1004.8V609.939H1051.32V656.467ZM1098.99 656.467H1052.47V609.939H1098.99V656.467ZM1146.66 656.467H1100.13V609.939H1146.66V656.467ZM1194.33 656.467H1147.8V609.939H1194.33V656.467ZM1242 656.467H1195.47V609.939H1242V656.467ZM1289.67 656.467H1243.14V609.939H1289.67V656.467ZM1337.34 656.467H1290.81V609.939H1337.34V656.467ZM1385.01 656.467H1338.48V609.939H1385.01V656.467ZM1432.68 656.467H1386.15V609.939H1432.68V656.467ZM1480.35 656.467H1433.82V609.939H1480.35V656.467ZM1528.01 656.467H1481.49V609.939H1528.01V656.467ZM1575.68 656.467H1529.16V609.939H1575.68V656.467ZM1623.35 656.467H1576.82V609.939H1623.35V656.467ZM1671.02 656.467H1624.49V609.939H1671.02V656.467ZM1671.02 608.798V562.27H1624.49V608.798H1671.02ZM1623.35 608.798V562.27H1576.82V608.798H1623.35ZM1575.68 608.798V562.27H1529.16V608.798H1575.68ZM1528.01 608.798V562.27H1481.49V608.798H1528.01ZM1480.35 608.798V562.27H1433.82V608.798H1480.35ZM1432.68 608.798V562.27H1386.15V608.798H1432.68ZM1385.01 608.798V562.27H1338.48V608.798H1385.01ZM1337.34 608.798V562.27H1290.81V608.798H1337.34ZM1289.67 608.798V562.27H1243.14V608.798H1289.67ZM1242 608.798V562.27H1195.47V608.798H1242ZM1194.33 608.798V562.27H1147.8V608.798H1194.33ZM1146.66 608.798V562.27H1100.13V608.798H1146.66ZM1098.99 608.798V562.27H1052.47V608.798H1098.99ZM1051.32 608.798V562.27H1004.8V608.798H1051.32ZM1003.66 608.798V562.27H957.128V608.798H1003.66ZM955.987 608.798V562.27H909.459V608.798H955.987ZM908.318 608.798V562.27H861.79V608.798H908.318ZM860.649 608.798V562.27H814.121V608.798H860.649ZM812.98 608.798V562.27H766.452V608.798H812.98ZM765.311 608.798V562.27H718.783V608.798H765.311ZM717.642 608.798V562.27H671.114V608.798H717.642ZM669.973 608.798V562.27H623.445V608.798H669.973ZM622.304 608.798V562.27H575.776V608.798H622.304ZM574.635 608.798V562.27H528.107V608.798H574.635ZM526.966 608.798V562.27H480.438V608.798H526.966ZM479.297 608.798V562.27H432.769V608.798H479.297ZM431.628 608.798V562.27H385.1V608.798H431.628ZM383.959 608.798V562.27H337.431V608.798H383.959ZM336.29 608.798V562.27H289.762V608.798H336.29ZM288.621 608.798V562.27H242.093V608.798H288.621ZM240.952 608.798V562.27H194.424V608.798H240.952ZM193.283 608.798V562.27H146.755V608.798H193.283ZM145.614 608.798V562.27H99.086V608.798H145.614ZM97.9453 608.798V562.27H51.4169V608.798H97.9453ZM97.9453 561.129H51.4169V514.601H97.9453V561.129ZM145.614 561.129H99.086V514.601H145.614V561.129ZM193.283 561.129H146.755V514.601H193.283V561.129ZM240.952 561.129H194.424V514.601H240.952V561.129ZM288.621 561.129H242.093V514.601H288.621V561.129ZM336.29 561.129H289.762V514.601H336.29V561.129ZM383.959 561.129H337.431V514.601H383.959V561.129ZM431.628 561.129H385.1V514.601H431.628V561.129ZM479.297 561.129H432.769V514.601H479.297V561.129ZM526.966 561.129H480.438V514.601H526.966V561.129ZM574.635 561.129H528.107V514.601H574.635V561.129ZM622.304 561.129H575.776V514.601H622.304V561.129ZM669.973 561.129H623.445V514.601H669.973V561.129ZM717.642 561.129H671.114V514.601H717.642V561.129ZM765.311 561.129H718.783V514.601H765.311V561.129ZM812.98 561.129H766.452V514.601H812.98V561.129ZM860.649 561.129H814.121V514.601H860.649V561.129ZM908.318 561.129H861.79V514.601H908.318V561.129ZM955.987 561.129H909.459V514.601H955.987V561.129ZM1003.66 561.129H957.128V514.601H1003.66V561.129ZM1051.32 561.129H1004.8V514.601H1051.32V561.129ZM1098.99 561.129H1052.47V514.601H1098.99V561.129ZM1146.66 561.129H1100.13V514.601H1146.66V561.129ZM1194.33 561.129H1147.8V514.601H1194.33V561.129ZM1242 561.129H1195.47V514.601H1242V561.129ZM1289.67 561.129H1243.14V514.601H1289.67V561.129ZM1337.34 561.129H1290.81V514.601H1337.34V561.129ZM1385.01 561.129H1338.48V514.601H1385.01V561.129ZM1432.68 561.129H1386.15V514.601H1432.68V561.129ZM1480.35 561.129H1433.82V514.601H1480.35V561.129ZM1528.01 561.129H1481.49V514.601H1528.01V561.129ZM1575.68 561.129H1529.16V514.601H1575.68V561.129ZM1623.35 561.129H1576.82V514.601H1623.35V561.129ZM1671.02 561.129H1624.49V514.601H1671.02V561.129ZM1671.02 513.46V466.932H1624.49V513.46H1671.02ZM1623.35 513.46V466.932H1576.82V513.46H1623.35ZM1575.68 513.46V466.932H1529.16V513.46H1575.68ZM1528.01 513.46V466.932H1481.49V513.46H1528.01ZM1480.35 513.46V466.932H1433.82V513.46H1480.35ZM1432.68 513.46V466.932H1386.15V513.46H1432.68ZM1385.01 513.46V466.932H1338.48V513.46H1385.01ZM1337.34 513.46V466.932H1290.81V513.46H1337.34ZM1289.67 513.46V466.932H1243.14V513.46H1289.67ZM1242 513.46V466.932H1195.47V513.46H1242ZM1194.33 513.46V466.932H1147.8V513.46H1194.33ZM1146.66 513.46V466.932H1100.13V513.46H1146.66ZM1098.99 513.46V466.932H1052.47V513.46H1098.99ZM1051.32 513.46V466.932H1004.8V513.46H1051.32ZM1003.66 513.46V466.932H957.128V513.46H1003.66ZM955.987 513.46V466.932H909.459V513.46H955.987ZM908.318 513.46V466.932H861.79V513.46H908.318ZM860.649 513.46V466.932H814.121V513.46H860.649ZM812.98 513.46V466.932H766.452V513.46H812.98ZM765.311 513.46V466.932H718.783V513.46H765.311ZM717.642 513.46V466.932H671.114V513.46H717.642ZM669.973 513.46V466.932H623.445V513.46H669.973ZM622.304 513.46V466.932H575.776V513.46H622.304ZM574.635 513.46V466.932H528.107V513.46H574.635ZM526.966 513.46V466.932H480.438V513.46H526.966ZM479.297 513.46V466.932H432.769V513.46H479.297ZM431.628 513.46V466.932H385.1V513.46H431.628ZM383.959 513.46V466.932H337.431V513.46H383.959ZM336.29 513.46V466.932H289.762V513.46H336.29ZM288.621 513.46V466.932H242.093V513.46H288.621ZM240.952 513.46V466.932H194.424V513.46H240.952ZM193.283 513.46V466.932H146.755V513.46H193.283ZM145.614 513.46V466.932H99.086V513.46H145.614ZM97.9453 513.46V466.932H51.4169V513.46H97.9453ZM97.9453 465.791H51.4169V419.263H97.9453V465.791ZM145.614 465.791H99.086V419.263H145.614V465.791ZM193.283 465.791H146.755V419.263H193.283V465.791ZM240.952 465.791H194.424V419.263H240.952V465.791ZM288.621 465.791H242.093V419.263H288.621V465.791ZM336.29 465.791H289.762V419.263H336.29V465.791ZM383.959 465.791H337.431V419.263H383.959V465.791ZM431.628 465.791H385.1V419.263H431.628V465.791ZM479.297 465.791H432.769V419.263H479.297V465.791ZM526.966 465.791H480.438V419.263H526.966V465.791ZM574.635 465.791H528.107V419.263H574.635V465.791ZM622.304 465.791H575.776V419.263H622.304V465.791ZM669.973 465.791H623.445V419.263H669.973V465.791ZM717.642 465.791H671.114V419.263H717.642V465.791ZM765.311 465.791H718.783V419.263H765.311V465.791ZM812.98 465.791H766.452V419.263H812.98V465.791ZM860.649 465.791H814.121V419.263H860.649V465.791ZM908.318 465.791H861.79V419.263H908.318V465.791ZM955.987 465.791H909.459V419.263H955.987V465.791ZM1003.66 465.791H957.128V419.263H1003.66V465.791ZM1051.32 465.791H1004.8V419.263H1051.32V465.791ZM1098.99 465.791H1052.47V419.263H1098.99V465.791ZM1146.66 465.791H1100.13V419.263H1146.66V465.791ZM1194.33 465.791H1147.8V419.263H1194.33V465.791ZM1242 465.791H1195.47V419.263H1242V465.791ZM1289.67 465.791H1243.14V419.263H1289.67V465.791ZM1337.34 465.791H1290.81V419.263H1337.34V465.791ZM1385.01 465.791H1338.48V419.263H1385.01V465.791ZM1432.68 465.791H1386.15V419.263H1432.68V465.791ZM1480.35 465.791H1433.82V419.263H1480.35V465.791ZM1528.01 465.791H1481.49V419.263H1528.01V465.791ZM1575.68 465.791H1529.16V419.263H1575.68V465.791ZM1623.35 465.791H1576.82V419.263H1623.35V465.791ZM1671.02 465.791H1624.49V419.263H1671.02V465.791ZM1671.02 418.122V371.594H1624.49V418.122H1671.02ZM1623.35 418.122V371.594H1576.82V418.122H1623.35ZM1575.68 418.122V371.594H1529.16V418.122H1575.68ZM1528.01 418.122V371.594H1481.49V418.122H1528.01ZM1480.35 418.122V371.594H1433.82V418.122H1480.35ZM1432.68 418.122V371.594H1386.15V418.122H1432.68ZM1385.01 418.122V371.594H1338.48V418.122H1385.01ZM1337.34 418.122V371.594H1290.81V418.122H1337.34ZM1289.67 418.122V371.594H1243.14V418.122H1289.67ZM1242 418.122V371.594H1195.47V418.122H1242ZM1194.33 418.122V371.594H1147.8V418.122H1194.33ZM1146.66 418.122V371.594H1100.13V418.122H1146.66ZM1098.99 418.122V371.594H1052.47V418.122H1098.99ZM1051.32 418.122V371.594H1004.8V418.122H1051.32ZM1003.66 418.122V371.594H957.128V418.122H1003.66ZM955.987 418.122V371.594H909.459V418.122H955.987ZM908.318 418.122V371.594H861.79V418.122H908.318ZM860.649 418.122V371.594H814.121V418.122H860.649ZM812.98 418.122V371.594H766.452V418.122H812.98ZM765.311 418.122V371.594H718.783V418.122H765.311ZM717.642 418.122V371.594H671.114V418.122H717.642ZM669.973 418.122V371.594H623.445V418.122H669.973ZM622.304 418.122V371.594H575.776V418.122H622.304ZM574.635 418.122V371.594H528.107V418.122H574.635ZM526.966 418.122V371.594H480.438V418.122H526.966ZM479.297 418.122V371.594H432.769V418.122H479.297ZM431.628 418.122V371.594H385.1V418.122H431.628ZM383.959 418.122V371.594H337.431V418.122H383.959ZM336.29 418.122V371.594H289.762V418.122H336.29ZM288.621 418.122V371.594H242.093V418.122H288.621ZM240.952 418.122V371.594H194.424V418.122H240.952ZM193.283 418.122V371.594H146.755V418.122H193.283ZM145.614 418.122V371.594H99.086V418.122H145.614ZM97.9453 418.122V371.594H51.4169V418.122H97.9453ZM97.9453 370.453H51.4169V323.925H97.9453V370.453ZM145.614 370.453H99.086V323.925H145.614V370.453ZM193.283 370.453H146.755V323.925H193.283V370.453ZM240.952 370.453H194.424V323.925H240.952V370.453ZM288.621 370.453H242.093V323.925H288.621V370.453ZM336.29 370.453H289.762V323.925H336.29V370.453ZM383.959 370.453H337.431V323.925H383.959V370.453ZM431.628 370.453H385.1V323.925H431.628V370.453ZM479.297 370.453H432.769V323.925H479.297V370.453ZM526.966 370.453H480.438V323.925H526.966V370.453ZM574.635 370.453H528.107V323.925H574.635V370.453ZM622.304 370.453H575.776V323.925H622.304V370.453ZM669.973 370.453H623.445V323.925H669.973V370.453ZM717.642 370.453H671.114V323.925H717.642V370.453ZM765.311 370.453H718.783V323.925H765.311V370.453ZM812.98 370.453H766.452V323.925H812.98V370.453ZM860.649 370.453H814.121V323.925H860.649V370.453ZM908.318 370.453H861.79V323.925H908.318V370.453ZM955.987 370.453H909.459V323.925H955.987V370.453ZM1003.66 370.453H957.128V323.925H1003.66V370.453ZM1051.32 370.453H1004.8V323.925H1051.32V370.453ZM1098.99 370.453H1052.47V323.925H1098.99V370.453ZM1146.66 370.453H1100.13V323.925H1146.66V370.453ZM1194.33 370.453H1147.8V323.925H1194.33V370.453ZM1242 370.453H1195.47V323.925H1242V370.453ZM1289.67 370.453H1243.14V323.925H1289.67V370.453ZM1337.34 370.453H1290.81V323.925H1337.34V370.453ZM1385.01 370.453H1338.48V323.925H1385.01V370.453ZM1432.68 370.453H1386.15V323.925H1432.68V370.453ZM1480.35 370.453H1433.82V323.925H1480.35V370.453ZM1528.01 370.453H1481.49V323.925H1528.01V370.453ZM1575.68 370.453H1529.16V323.925H1575.68V370.453ZM1623.35 370.453H1576.82V323.925H1623.35V370.453ZM1671.02 370.453H1624.49V323.925H1671.02V370.453ZM1671.02 322.784V276.256H1624.49V322.784H1671.02ZM1623.35 322.784V276.256H1576.82V322.784H1623.35ZM1575.68 322.784V276.256H1529.16V322.784H1575.68ZM1528.01 322.784V276.256H1481.49V322.784H1528.01ZM1480.35 322.784V276.256H1433.82V322.784H1480.35ZM1432.68 322.784V276.256H1386.15V322.784H1432.68ZM1385.01 322.784V276.256H1338.48V322.784H1385.01ZM1337.34 322.784V276.256L1290.81 276.256V322.784H1337.34ZM1289.67 322.784V276.256H1243.14V322.784H1289.67ZM1242 322.784V276.256H1195.47V322.784H1242ZM1194.33 322.784V276.256H1147.8V322.784H1194.33ZM1146.66 322.784V276.256H1100.13V322.784H1146.66ZM1098.99 322.784V276.256H1052.47V322.784H1098.99ZM1051.32 322.784V276.256H1004.8V322.784H1051.32ZM1003.66 322.784V276.256H957.128V322.784H1003.66ZM955.987 322.784V276.256H909.459V322.784H955.987ZM908.318 322.784V276.256H861.79V322.784H908.318ZM860.649 322.784V276.256H814.121V322.784H860.649ZM812.98 322.784V276.256H766.452V322.784H812.98ZM765.311 322.784V276.256H718.783V322.784H765.311ZM717.642 322.784V276.256H671.114V322.784H717.642ZM669.973 322.784V276.256H623.445V322.784H669.973ZM622.304 322.784V276.256H575.776V322.784H622.304ZM574.635 322.784V276.256H528.107V322.784H574.635ZM526.966 322.784V276.256H480.438V322.784H526.966ZM479.297 322.784V276.256H432.769V322.784H479.297ZM431.628 322.784V276.256L385.1 276.256V322.784H431.628ZM383.959 322.784V276.256H337.431V322.784H383.959ZM336.29 322.784V276.256H289.762V322.784H336.29ZM288.621 322.784V276.256H242.093V322.784H288.621ZM240.952 322.784V276.256H194.424V322.784H240.952ZM193.283 322.784V276.256H146.755V322.784H193.283ZM145.614 322.784V276.256H99.086V322.784H145.614ZM97.9453 322.784V276.256H51.4169V322.784H97.9453ZM97.9453 275.115H51.4169V228.587H97.9453V275.115ZM145.614 275.115H99.086V228.587H145.614V275.115ZM193.283 275.115H146.755V228.587H193.283V275.115ZM240.952 275.115H194.424V228.587H240.952V275.115ZM288.621 275.115H242.093V228.587H288.621V275.115ZM336.29 275.115H289.762V228.587H336.29V275.115ZM383.959 275.115H337.431V228.587H383.959V275.115ZM431.628 275.115L385.1 275.115V228.587L431.628 228.587V275.115ZM479.297 275.115H432.769V228.587H479.297V275.115ZM526.966 275.115H480.438V228.587H526.966V275.115ZM574.635 275.115H528.107V228.587H574.635V275.115ZM622.304 275.115H575.776V228.587H622.304V275.115ZM669.973 275.115H623.445V228.587H669.973V275.115ZM717.642 275.115H671.114V228.587H717.642V275.115ZM765.311 275.115H718.783V228.587H765.311V275.115ZM812.98 275.115H766.452V228.587H812.98V275.115ZM860.649 275.115H814.121V228.587H860.649V275.115ZM908.318 275.115H861.79V228.587H908.318V275.115ZM955.987 275.115H909.459V228.587H955.987V275.115ZM1003.66 275.115H957.128V228.587H1003.66V275.115ZM1051.32 275.115H1004.8V228.587H1051.32V275.115ZM1098.99 275.115H1052.47V228.587H1098.99V275.115ZM1146.66 275.115H1100.13V228.587H1146.66V275.115ZM1194.33 275.115H1147.8V228.587H1194.33V275.115ZM1242 275.115H1195.47V228.587H1242V275.115ZM1289.67 275.115H1243.14V228.587H1289.67V275.115ZM1337.34 275.115L1290.81 275.115V228.587H1337.34V275.115ZM1385.01 275.115H1338.48V228.587H1385.01V275.115ZM1432.68 275.115H1386.15V228.587H1432.68V275.115ZM1480.35 275.115H1433.82V228.587H1480.35V275.115ZM1528.01 275.115H1481.49V228.587H1528.01V275.115ZM1575.68 275.115H1529.16V228.587H1575.68V275.115ZM1623.35 275.115H1576.82V228.587H1623.35V275.115ZM1671.02 275.115H1624.49V228.587H1671.02V275.115ZM1671.02 227.446V180.918H1624.49V227.446H1671.02ZM1623.35 227.446V180.918H1576.82V227.446H1623.35ZM1575.68 227.446V180.918H1529.16V227.446H1575.68ZM1528.01 227.446V180.918H1481.49V227.446H1528.01ZM1480.35 227.446V180.918H1433.82V227.446H1480.35ZM1432.68 227.446V180.918H1386.15V227.446H1432.68ZM1385.01 227.446V180.918H1338.48V227.446H1385.01ZM1337.34 227.446V180.918L1290.81 180.918V227.446H1337.34ZM1289.67 227.446V180.918H1243.14V227.446H1289.67ZM1242 227.446V180.918H1195.47V227.446H1242ZM1194.33 227.446V180.918H1147.8V227.446H1194.33ZM1146.66 227.446V180.918H1100.13V227.446H1146.66ZM1098.99 227.446V180.918H1052.47V227.446H1098.99ZM1051.32 227.446V180.918H1004.8V227.446H1051.32ZM1003.66 227.446V180.918H957.128V227.446H1003.66ZM955.987 227.446V180.918H909.459V227.446H955.987ZM908.318 227.446V180.918H861.79V227.446H908.318ZM860.649 227.446V180.918H814.121V227.446H860.649ZM812.98 227.446V180.918H766.452V227.446H812.98ZM765.311 227.446V180.918H718.783V227.446H765.311ZM717.642 227.446V180.918H671.114V227.446H717.642ZM669.973 227.446V180.918H623.445V227.446H669.973ZM622.304 227.446V180.918H575.776V227.446H622.304ZM574.635 227.446V180.918H528.107V227.446H574.635ZM526.966 227.446V180.918H480.438V227.446H526.966ZM479.297 227.446V180.918H432.769V227.446H479.297ZM431.628 227.446V180.918L385.1 180.918V227.446L431.628 227.446ZM383.959 227.446V180.918H337.431V227.446H383.959ZM336.29 227.446V180.918H289.762V227.446H336.29ZM288.621 227.446V180.918H242.093V227.446H288.621ZM240.952 227.446V180.918H194.424V227.446H240.952ZM193.283 227.446V180.918H146.755V227.446H193.283ZM145.614 227.446V180.918H99.086V227.446H145.614ZM97.9453 227.446V180.918H51.4169V227.446H97.9453ZM97.9453 179.777H51.4169V133.249H97.9453V179.777ZM145.614 179.777H99.086V133.249H145.614V179.777ZM193.283 179.777H146.755V133.249L193.283 133.249V179.777ZM240.952 179.777H194.424V133.249H240.952V179.777ZM288.621 179.777H242.093V133.249H288.621V179.777ZM336.29 179.777H289.762V133.249H336.29V179.777ZM383.959 179.777H337.431V133.249H383.959V179.777ZM431.628 179.777L385.1 179.777V133.249H431.628V179.777ZM479.297 179.777H432.769V133.249H479.297V179.777ZM526.966 179.777H480.438V133.249H526.966V179.777ZM574.635 179.777H528.107V133.249H574.635V179.777ZM622.304 179.777H575.776V133.249H622.304V179.777ZM669.973 179.777H623.445V133.249H669.973V179.777ZM717.642 179.777H671.114V133.249H717.642V179.777ZM765.311 179.777H718.783V133.249H765.311V179.777ZM812.98 179.777H766.452V133.249H812.98V179.777ZM860.649 179.777H814.121V133.249H860.649V179.777ZM908.318 179.777H861.79V133.249H908.318V179.777ZM955.987 179.777H909.459V133.249H955.987V179.777ZM1003.66 179.777H957.128V133.249H1003.66V179.777ZM1051.32 179.777H1004.8V133.249H1051.32V179.777ZM1098.99 179.777H1052.47V133.249H1098.99V179.777ZM1146.66 179.777H1100.13V133.249H1146.66V179.777ZM1194.33 179.777H1147.8V133.249H1194.33V179.777ZM1242 179.777H1195.47V133.249L1242 133.249V179.777ZM1289.67 179.777H1243.14V133.249H1289.67V179.777ZM1337.34 179.777L1290.81 179.777V133.249H1337.34V179.777ZM1385.01 179.777H1338.48V133.249H1385.01V179.777ZM1432.68 179.777H1386.15V133.249H1432.68V179.777ZM1480.35 179.777H1433.82V133.249H1480.35V179.777ZM1528.01 179.777H1481.49V133.249H1528.01V179.777ZM1575.68 179.777H1529.16V133.249H1575.68V179.777ZM1623.35 179.777H1576.82V133.249H1623.35V179.777ZM1671.02 179.777H1624.49V133.249H1671.02V179.777ZM1671.02 132.108V85.58H1624.49V132.108H1671.02ZM1623.35 132.108V85.58H1576.82V132.108H1623.35ZM1575.68 132.108V85.58L1529.16 85.58V132.108H1575.68ZM1528.01 132.108V85.58H1481.49V132.108H1528.01ZM1480.35 132.108V85.58H1433.82V132.108H1480.35ZM1432.68 132.108V85.58H1386.15V132.108H1432.68ZM1385.01 132.108V85.58H1338.48V132.108H1385.01ZM1337.34 132.108V85.58H1290.81V132.108H1337.34ZM1289.67 132.108V85.58H1243.14V132.108H1289.67ZM1242 132.108V85.58L1195.47 85.58V132.108L1242 132.108ZM1194.33 132.108V85.58H1147.8V132.108H1194.33ZM1146.66 132.108V85.58H1100.13V132.108H1146.66ZM1098.99 132.108V85.58H1052.47V132.108H1098.99ZM1051.32 132.108V85.58H1004.8V132.108H1051.32ZM1003.66 132.108V85.58H957.128V132.108H1003.66ZM955.987 132.108V85.58H909.459V132.108H955.987ZM908.318 132.108V85.58H861.79V132.108H908.318ZM860.649 132.108V85.58H814.121V132.108H860.649ZM812.98 132.108V85.58H766.452V132.108H812.98ZM765.311 132.108V85.58H718.783V132.108H765.311ZM717.642 132.108V85.58H671.114V132.108H717.642ZM669.973 132.108V85.58H623.445V132.108H669.973ZM622.304 132.108V85.58H575.776V132.108H622.304ZM574.635 132.108V85.58H528.107V132.108H574.635ZM526.966 132.108V85.58L480.438 85.58V132.108H526.966ZM479.297 132.108V85.58H432.769V132.108H479.297ZM431.628 132.108V85.58H385.1V132.108H431.628ZM383.959 132.108V85.58H337.431V132.108H383.959ZM336.29 132.108V85.58H289.762V132.108H336.29ZM288.621 132.108V85.58H242.093V132.108H288.621ZM240.952 132.108V85.58H194.424V132.108H240.952ZM193.283 132.108V85.58L146.755 85.58V132.108L193.283 132.108ZM145.614 132.108V85.58H99.086V132.108H145.614ZM97.9453 132.108V85.58H51.4169V132.108H97.9453ZM97.9453 84.4393H51.4169V37.911L97.9453 37.911V84.4393ZM145.614 84.4393H99.086V37.911H145.614V84.4393ZM193.283 84.4393L146.755 84.4393V37.911H193.283V84.4393ZM240.952 84.4393H194.424V37.911H240.952V84.4393ZM288.621 84.4393H242.093V37.911L288.621 37.911V84.4393ZM336.29 84.4393H289.762V37.911H336.29V84.4393ZM383.959 84.4393H337.431V37.911H383.959V84.4393ZM431.628 84.4393H385.1V37.911H431.628V84.4393ZM479.297 84.4393H432.769V37.911L479.297 37.911V84.4393ZM526.966 84.4393L480.438 84.4393V37.911H526.966V84.4393ZM574.635 84.4393H528.107V37.911H574.635V84.4393ZM622.304 84.4393H575.776V37.911H622.304V84.4393ZM669.973 84.4393H623.445V37.911L669.973 37.911V84.4393ZM717.642 84.4393H671.114V37.911H717.642V84.4393ZM765.311 84.4393H718.783V37.911H765.311V84.4393ZM812.98 84.4393H766.452V37.911H812.98V84.4393ZM860.649 84.4393H814.121V37.911H860.649V84.4393ZM908.318 84.4393H861.79V37.911H908.318V84.4393ZM955.987 84.4393H909.459V37.911H955.987V84.4393ZM1003.66 84.4393H957.128V37.911H1003.66V84.4393ZM1051.32 84.4393H1004.8V37.911H1051.32V84.4393ZM1098.99 84.4393H1052.47V37.911L1098.99 37.911V84.4393ZM1146.66 84.4393H1100.13V37.911H1146.66V84.4393ZM1194.33 84.4393H1147.8V37.911H1194.33V84.4393ZM1242 84.4393L1195.47 84.4393V37.911H1242V84.4393ZM1289.67 84.4393H1243.14V37.911L1289.67 37.911V84.4393ZM1337.34 84.4393H1290.81V37.911H1337.34V84.4393ZM1385.01 84.4393H1338.48V37.911H1385.01V84.4393ZM1432.68 84.4393H1386.15V37.911H1432.68V84.4393ZM1480.35 84.4393H1433.82V37.911L1480.35 37.911V84.4393ZM1528.01 84.4393H1481.49V37.911H1528.01V84.4393ZM1575.68 84.4393L1529.16 84.4393V37.911H1575.68V84.4393ZM1623.35 84.4393H1576.82V37.911H1623.35V84.4393ZM1671.02 84.4393H1624.49V37.911L1671.02 37.911V84.4393Z" fill="white"/>
</svg>
