<svg width="1712" height="480" viewBox="0 0 1712 480" fill="none" xmlns="http://www.w3.org/2000/svg">
<path fill-rule="evenodd" clip-rule="evenodd" d="M1103.13 82.1661C1037.08 78.4912 947.569 130.775 945.063 237.461C942.521 345.642 1020.29 397.09 1086.6 397.09C1114.12 397.09 1139.44 391.297 1159.78 383.374C1180.88 375.151 1193.83 365.762 1198.39 360.955L1255.7 415.322C1240.5 431.355 1216.16 446.192 1188.45 456.985C1159.98 468.078 1124.96 476.09 1086.6 476.09C981.101 476.09 862.384 393.126 866.084 235.605C869.82 76.5896 1005.03 -2.41467 1107.52 3.28813C1154.65 5.91092 1201.24 17.8876 1240.7 46.1856C1280.68 74.8571 1309.89 117.822 1325.98 175.992L1326.58 178.184L1326.93 180.43C1328.08 187.772 1329.05 196.198 1330.12 205.414C1333.53 234.976 1337.89 272.663 1351.87 308.737C1360.63 331.353 1372.09 349.673 1386.75 362.18C1400.64 374.025 1419.48 382.493 1447.5 382.493V461.493C1401.4 461.493 1364.2 446.778 1335.49 422.286C1307.54 398.456 1289.83 367.285 1278.2 337.285C1259.96 290.196 1253.97 236.678 1250.76 208.036C1250.16 202.67 1249.66 198.177 1249.19 194.763C1237.12 152.689 1217.47 126.744 1194.66 110.383C1170.92 93.3556 1140.26 84.2322 1103.13 82.1661Z" fill="white"/>
<path fill-rule="evenodd" clip-rule="evenodd" d="M1613.82 321.822C1624.47 303.397 1632.24 277.218 1632.24 239.493C1632.24 183.128 1611.86 144.732 1584.7 120.11C1556.78 94.8074 1519.37 82.0039 1483.11 82.0035C1418.58 82.0028 1374.54 97.179 1353.96 111.404L1309.05 46.412C1347.05 20.1494 1408.57 3.00275 1483.11 3.00354C1536.98 3.00412 1593.89 21.8203 1637.75 61.5742C1682.36 102.009 1711.24 162.107 1711.24 239.493C1711.24 288.195 1701.14 328.632 1682.21 361.368C1663.19 394.253 1636.62 417.015 1607.5 432.305C1550.85 462.047 1483.89 463.887 1437.65 461.437L1441.83 382.548C1484.65 384.816 1533.68 381.835 1570.77 362.361C1588.52 353.043 1603.25 340.099 1613.82 321.822Z" fill="white"/>
<path d="M349.413 147.157C338.662 127.446 323.879 112.439 305.064 102.136C286.25 91.8329 264.299 86.6813 239.213 86.6813C211.44 86.6813 186.802 92.9528 165.299 105.496C143.797 118.039 126.998 135.957 114.903 159.252C102.808 182.546 96.7605 209.424 96.7605 239.885C96.7605 271.243 102.808 298.569 114.903 321.863C127.446 345.157 144.693 363.076 166.643 375.619C188.593 388.162 214.127 394.433 243.245 394.433C279.082 394.433 308.424 385.026 331.27 366.212C354.117 346.949 369.123 320.295 376.291 286.25H215.023V214.351H469.02V296.329C462.748 329.03 449.309 359.268 428.703 387.042C408.096 414.816 381.442 437.214 348.741 454.237C316.487 470.811 280.202 479.099 239.885 479.099C194.641 479.099 153.652 469.02 116.919 448.861C80.6337 428.255 51.964 399.809 30.9096 363.524C10.3032 327.239 0 286.026 0 239.885C0 193.745 10.3032 152.532 30.9096 116.247C51.964 79.5138 80.6337 51.068 116.919 30.9096C153.652 10.3032 194.417 0 239.213 0C292.073 0 337.99 12.991 376.963 38.9729C415.936 64.507 442.814 100.568 457.597 147.157H349.413Z" fill="white"/>
<rect x="399.386" y="213.525" width="69.4583" height="263.942" fill="white"/>
<path d="M845.597 117.541L829.585 174.04H529.704L545.716 117.541H845.597ZM699.659 473.464L535.88 274.687L535.423 230.082H616.626C636.908 230.082 654.063 226.956 668.093 220.704C682.122 214.451 692.797 205.378 700.117 193.483C707.437 181.436 711.096 166.797 711.096 149.565C711.096 123.946 703.472 103.588 688.222 88.4908C672.973 73.3938 649.107 65.8454 616.626 65.8454H529.704L546.402 5H616.626C654.445 5 685.63 11.0235 710.182 23.0706C734.733 35.1177 753.032 51.8158 765.08 73.1651C777.127 94.5143 783.15 119.142 783.15 147.049C783.15 171.905 778.194 194.398 768.282 214.528C758.37 234.657 742.587 251.05 720.932 263.707C699.278 276.364 670.838 283.76 635.612 285.895L633.553 286.353L783.15 469.575V473.464H699.659ZM845.825 5L829.585 61.9568L589.863 60.5843L606.104 5H845.825Z" fill="white"/>
</svg>
