<svg width="1712" height="480" viewBox="0 0 1712 480" fill="none" xmlns="http://www.w3.org/2000/svg">
<path fill-rule="evenodd" clip-rule="evenodd" d="M305.064 102.136C323.879 112.439 338.662 127.446 349.413 147.157H457.596C442.814 100.568 415.936 64.507 376.963 38.9729C337.99 12.991 292.073 0 239.213 0C194.417 0 153.652 10.3032 116.919 30.9096C80.6337 51.068 51.964 79.5138 30.9096 116.247C10.3032 152.532 0 193.745 0 239.885C0 286.026 10.3032 327.239 30.9096 363.524C51.964 399.809 80.6337 428.255 116.919 448.861C153.652 469.02 194.641 479.099 239.885 479.099C280.202 479.099 316.487 470.811 348.741 454.237C367.643 444.397 384.525 432.762 399.386 419.33V477.467H468.844V297.234C468.903 296.932 468.962 296.631 469.02 296.329V214.351H468.844V213.525H399.386V214.351H215.023V286.25H376.291C369.123 320.295 354.117 346.949 331.27 366.212C308.424 385.026 279.082 394.433 243.245 394.433C214.127 394.433 188.593 388.162 166.643 375.619C144.693 363.076 127.446 345.157 114.903 321.863C102.808 298.569 96.7605 271.243 96.7605 239.885C96.7605 209.424 102.808 182.546 114.903 159.252C126.998 135.957 143.797 118.039 165.299 105.496C186.801 92.9528 211.44 86.6813 239.213 86.6813C264.299 86.6813 286.25 91.8329 305.064 102.136ZM1103.13 82.1661C1037.08 78.4912 947.569 130.775 945.063 237.461C942.521 345.642 1020.29 397.09 1086.6 397.09C1114.12 397.09 1139.44 391.297 1159.78 383.374C1180.88 375.151 1193.83 365.762 1198.39 360.955L1255.7 415.322C1240.5 431.355 1216.16 446.192 1188.45 456.985C1159.98 468.078 1124.96 476.09 1086.6 476.09C981.101 476.09 862.384 393.126 866.084 235.605C869.82 76.5896 1005.03 -2.41467 1107.52 3.28813C1154.66 5.91092 1201.24 17.8876 1240.7 46.1856C1280.68 74.8571 1309.89 117.822 1325.98 175.992L1326.58 178.184L1326.93 180.43C1328.08 187.772 1329.05 196.198 1330.12 205.414C1333.53 234.976 1337.89 272.663 1351.87 308.737C1360.63 331.353 1372.09 349.673 1386.75 362.18C1400.64 374.025 1419.48 382.493 1447.5 382.493V382.815C1488.93 384.523 1535.31 380.98 1570.77 362.361C1588.52 353.043 1603.25 340.099 1613.82 321.822C1624.47 303.397 1632.24 277.218 1632.24 239.493C1632.24 183.128 1611.86 144.732 1584.7 120.11C1556.78 94.8074 1519.37 82.0039 1483.11 82.0035C1418.58 82.0028 1374.54 97.179 1353.96 111.404L1309.05 46.412C1347.05 20.1494 1408.57 3.00275 1483.11 3.00354C1536.98 3.00412 1593.89 21.8203 1637.75 61.5742C1682.36 102.009 1711.24 162.107 1711.24 239.493C1711.24 288.195 1701.14 328.632 1682.21 361.368C1663.19 394.253 1636.62 417.015 1607.5 432.305C1550.85 462.047 1483.89 463.887 1437.65 461.437L1437.66 461.264C1396.07 459.318 1362.13 445.01 1335.49 422.286C1307.54 398.456 1289.83 367.285 1278.2 337.285C1259.96 290.196 1253.97 236.678 1250.76 208.036C1250.16 202.67 1249.66 198.177 1249.19 194.763C1237.12 152.689 1217.47 126.744 1194.66 110.383C1170.92 93.3556 1140.26 84.2322 1103.13 82.1661ZM829.585 174.04L845.597 117.541H780.698C777.894 101.441 772.688 86.6492 765.08 73.1651C762.8 69.125 760.296 65.2514 757.569 61.5444L829.585 61.9568L845.825 5H616.626H606.104H546.402L529.704 65.8454H616.626C649.107 65.8454 672.973 73.3938 688.222 88.4908C696.455 96.6409 702.465 106.324 706.253 117.541H545.716L529.704 174.04H708.206C706.378 181.136 703.681 187.617 700.117 193.483C692.797 205.378 682.122 214.451 668.093 220.704C654.063 226.956 636.908 230.082 616.626 230.082H535.423L535.88 274.687L699.659 473.464H783.15V469.575L633.553 286.353L635.612 285.895C670.838 283.76 699.278 276.364 720.932 263.707C742.587 251.05 758.37 234.657 768.282 214.528C774.473 201.954 778.731 188.458 781.055 174.04H829.585Z" fill="url(#paint0_linear_6342_43531)"/>
<defs>
<linearGradient id="paint0_linear_6342_43531" x1="556.289" y1="239.549" x2="1048.26" y2="473.197" gradientUnits="userSpaceOnUse">
<stop stop-color="#ECD996"/>
<stop offset="0.475" stop-color="white"/>
<stop offset="1" stop-color="#ECD996"/>
</linearGradient>
</defs>
</svg>
