<svg width="39" height="39" viewBox="0 0 39 39" fill="none" xmlns="http://www.w3.org/2000/svg">
<rect x="0.170796" y="0.170796" width="38.0874" height="38.0874" rx="8.00559" fill="#090909"/>
<rect x="0.170796" y="0.170796" width="38.0874" height="38.0874" rx="8.00559" stroke="url(#paint0_linear_1820_1937)" stroke-width="0.341591"/>
<path fill-rule="evenodd" clip-rule="evenodd" d="M30.0546 19.231C30.0546 20.4192 29.81 21.2437 29.4744 21.824C29.1416 22.3997 28.6776 22.8074 28.1187 23.1008C27.0019 23.6872 25.541 23.7988 24.2363 23.745V23.735C23.3537 23.735 22.7603 23.4684 22.3229 23.0953C21.8611 22.7014 21.5003 22.1244 21.2242 21.4121C20.7839 20.2759 20.6468 19.0889 20.5392 18.1579L20.5392 18.1578C20.5057 17.8676 20.475 17.6022 20.439 17.371L20.4279 17.3003L20.4088 17.2312C19.9023 15.3991 18.9822 14.0459 17.723 13.1429C16.4803 12.2517 15.0129 11.8744 13.5283 11.7918C10.3003 11.6122 6.04195 14.1005 5.92429 19.1088C5.80773 24.0699 9.54677 26.683 12.8694 26.683C14.0776 26.683 15.1807 26.4306 16.0774 26.0812C16.95 25.7413 17.7165 25.274 18.1955 24.769L16.3903 23.0567C16.2467 23.2081 15.839 23.5038 15.1742 23.7628C14.5337 24.0124 13.7363 24.1948 12.8694 24.1948C10.7812 24.1948 8.3317 22.5744 8.41174 19.1672C8.49068 15.8071 11.3099 14.1604 13.3901 14.2761C14.5596 14.3412 15.5252 14.6286 16.273 15.1648C16.9915 15.6801 17.6103 16.4973 17.9904 17.8224C18.0051 17.9299 18.021 18.0715 18.0399 18.2405C18.1408 19.1426 18.3294 20.8281 18.9042 22.3112C19.2704 23.2561 19.8283 24.2378 20.7083 24.9884C21.5474 25.7041 22.6164 26.1547 23.9262 26.216L23.9259 26.2213C25.3824 26.2984 27.4914 26.2405 29.2754 25.3038C30.1926 24.8222 31.0295 24.1053 31.6284 23.0696C32.2246 22.0385 32.5427 20.7649 32.5427 19.231C32.5427 16.7938 31.6333 14.9009 30.2281 13.6274C28.8466 12.3754 27.0545 11.7827 25.3578 11.7827C23.01 11.7827 21.0724 12.3227 19.8755 13.1499L21.29 15.1968C21.9383 14.7488 23.3252 14.2708 25.3578 14.2709C26.4997 14.2709 27.6779 14.6741 28.5572 15.471C29.4129 16.2465 30.0546 17.4558 30.0546 19.231Z" fill="url(#paint1_linear_1820_1937)"/>
<defs>
<linearGradient id="paint0_linear_1820_1937" x1="12.4925" y1="19.2145" x2="25.7973" y2="20.9836" gradientUnits="userSpaceOnUse">
<stop stop-color="#ECD996"/>
<stop offset="0.475" stop-color="white"/>
<stop offset="1" stop-color="#ECD996"/>
</linearGradient>
<linearGradient id="paint1_linear_1820_1937" x1="14.5756" y1="19.2328" x2="23.4542" y2="21.342" gradientUnits="userSpaceOnUse">
<stop stop-color="#ECD996"/>
<stop offset="0.475" stop-color="white"/>
<stop offset="1" stop-color="#ECD996"/>
</linearGradient>
</defs>
</svg>
