<svg width="600" height="667" viewBox="0 0 600 667" fill="none" xmlns="http://www.w3.org/2000/svg">
<path d="M184.97 462.822H415.282C491.745 462.822 553.469 524.806 553.469 601.592V694.104H46.7832V601.592C46.7832 524.806 108.507 462.822 184.97 462.822ZM184.97 185.284H415.282V300.925C415.282 331.595 403.149 361.009 381.553 382.696C359.957 404.383 330.667 416.566 300.126 416.566C269.585 416.566 240.294 404.383 218.698 382.696C197.103 361.009 184.97 331.595 184.97 300.925V185.284ZM415.282 185.284C440.616 185.284 461.344 206.1 461.344 231.541C461.344 256.982 440.616 277.797 415.282 277.797V185.284ZM184.97 277.797C159.636 277.797 138.908 256.982 138.908 231.541C138.908 206.1 159.636 185.284 184.97 185.284V277.797Z" fill="#ECD996"/>
<path d="M190.501 190.839H167.47C132.923 162.16 138.911 118.217 138.911 81.2115C138.911 44.2064 161.943 69.1848 184.974 69.1848C208.005 69.1848 231.036 92.313 231.036 92.313C190.501 92.313 184.974 46.0566 184.974 46.0566H323.161C373.829 46.0566 415.285 87.6874 415.285 138.569H438.316C438.316 138.569 449.832 173.262 432.789 196.39L190.962 190.839H190.501Z" fill="#ECD996"/>
</svg>
