<svg width="22" height="19" viewBox="0 0 22 19" fill="none" xmlns="http://www.w3.org/2000/svg">
<path d="M21.3457 5.62085L11.4891 0.363966C11.394 0.313342 11.288 0.286865 11.1802 0.286865C11.0725 0.286865 10.9665 0.313342 10.8714 0.363966L1.01475 5.62085C0.909616 5.67688 0.821692 5.76043 0.760383 5.86258C0.699074 5.96472 0.666687 6.08161 0.666687 6.20075C0.666687 6.31988 0.699074 6.43677 0.760383 6.53891C0.821692 6.64106 0.909616 6.72462 1.01475 6.78065L3.29492 7.99712V11.9743C3.29424 12.297 3.41303 12.6087 3.62841 12.8491C4.70442 14.0475 7.1152 16.0574 11.1802 16.0574C12.5281 16.0685 13.8659 15.8244 15.1229 15.3379V18.0287C15.1229 18.203 15.1921 18.3701 15.3154 18.4934C15.4386 18.6166 15.6057 18.6858 15.78 18.6858C15.9543 18.6858 16.1214 18.6166 16.2447 18.4934C16.3679 18.3701 16.4371 18.203 16.4371 18.0287V14.7029C17.294 14.2083 18.0683 13.5828 18.7321 12.8491C18.9475 12.6087 19.0662 12.297 19.0656 11.9743V7.99712L21.3457 6.78065C21.4509 6.72462 21.5388 6.64106 21.6001 6.53891C21.6614 6.43677 21.6938 6.31988 21.6938 6.20075C21.6938 6.08161 21.6614 5.96472 21.6001 5.86258C21.5388 5.76043 21.4509 5.67688 21.3457 5.62085ZM11.1802 14.7432C7.6261 14.7432 5.53567 13.0068 4.60914 11.9743V8.69776L10.8714 12.0375C10.9665 12.0882 11.0725 12.1146 11.1802 12.1146C11.288 12.1146 11.394 12.0882 11.4891 12.0375L15.1229 10.0999V13.9062C14.088 14.3892 12.7836 14.7432 11.1802 14.7432ZM17.7513 11.971C17.3574 12.4081 16.9167 12.8006 16.4371 13.1415V9.39841L17.7513 8.69776V11.971ZM16.1086 8.08501L16.0905 8.07433L11.4907 5.62085C11.3373 5.54246 11.1591 5.5275 10.9948 5.57918C10.8304 5.63086 10.6928 5.74505 10.6118 5.89715C10.5308 6.04925 10.5128 6.22709 10.5617 6.39234C10.6105 6.5576 10.7224 6.69705 10.873 6.78065L14.7122 8.82919L11.1802 10.7126L2.71995 6.20075L11.1802 1.68886L19.6405 6.20075L16.1086 8.08501Z" fill="#007AFF"/>
</svg>
