<svg width="16" height="16" viewBox="0 0 16 16" fill="none" xmlns="http://www.w3.org/2000/svg">
<path d="M4 8.66667V7.72152C4 7.0368 3.77792 6.37056 3.36709 5.82278V5.82278C2.80382 5.07176 3.3397 4 4.27848 4H11.7215C12.6603 4 13.1962 5.07176 12.6329 5.82278V5.82278C12.2221 6.37056 12 7.0368 12 7.72152V12C12 13.4728 10.8061 14.6667 9.33333 14.6667H6.66667C5.19391 14.6667 4 13.4728 4 12V11.3333" stroke="#2B3F6C" stroke-linecap="round"/>
<path d="M9.33325 11.3333L9.33325 7.33334" stroke="#2B3F6C" stroke-linecap="round" stroke-linejoin="round"/>
<path d="M6.66675 11.3333L6.66675 7.33334" stroke="#2B3F6C" stroke-linecap="round" stroke-linejoin="round"/>
<path d="M9.75789 2.21038C9.54819 2.0761 9.30028 2 9.03903 2H6.96105C6.6998 2 6.45189 2.0761 6.24219 2.21038" stroke="#2B3F6C" stroke-linecap="round"/>
</svg>
