<svg width="15" height="16" viewBox="0 0 15 16" fill="none" xmlns="http://www.w3.org/2000/svg">
<path d="M6.09375 7.08008C6.8704 7.08008 7.5 6.45048 7.5 5.67383C7.5 4.89718 6.8704 4.26758 6.09375 4.26758C5.3171 4.26758 4.6875 4.89718 4.6875 5.67383C4.6875 6.45048 5.3171 7.08008 6.09375 7.08008Z" stroke="#262626" stroke-width="1.25" stroke-linecap="round" stroke-linejoin="round"/>
<path d="M9.84375 12.7051C10.6204 12.7051 11.25 12.0755 11.25 11.2988C11.25 10.5222 10.6204 9.89258 9.84375 9.89258C9.0671 9.89258 8.4375 10.5222 8.4375 11.2988C8.4375 12.0755 9.0671 12.7051 9.84375 12.7051Z" stroke="#262626" stroke-width="1.25" stroke-linecap="round" stroke-linejoin="round"/>
<path d="M7.5 5.67383H12.6562" stroke="#262626" stroke-width="1.25" stroke-linecap="round" stroke-linejoin="round"/>
<path d="M2.34375 5.67383H4.6875" stroke="#262626" stroke-width="1.25" stroke-linecap="round" stroke-linejoin="round"/>
<path d="M11.25 11.2988H12.6562" stroke="#262626" stroke-width="1.25" stroke-linecap="round" stroke-linejoin="round"/>
<path d="M2.34375 11.2988H8.4375" stroke="#262626" stroke-width="1.25" stroke-linecap="round" stroke-linejoin="round"/>
</svg>
