<svg width="22" height="16" viewBox="0 0 22 16" fill="none" xmlns="http://www.w3.org/2000/svg">
<g clip-path="url(#clip0_1798_88946)">
<path d="M0 0H21.3333V5.33333H0V0Z" fill="#FF9933"/>
<path d="M0 5.33325H21.3333V10.6666H0V5.33325Z" fill="white"/>
<path d="M0 10.6667H21.3333V16.0001H0V10.6667Z" fill="#128807"/>
<path d="M10.6667 10.1331C11.8449 10.1331 12.8 9.178 12.8 7.99979C12.8 6.82158 11.8449 5.86646 10.6667 5.86646C9.48847 5.86646 8.53334 6.82158 8.53334 7.99979C8.53334 9.178 9.48847 10.1331 10.6667 10.1331Z" fill="#000088"/>
<path d="M10.6667 9.86663C11.6976 9.86663 12.5333 9.0309 12.5333 7.99997C12.5333 6.96904 11.6976 6.1333 10.6667 6.1333C9.63574 6.1333 8.8 6.96904 8.8 7.99997C8.8 9.0309 9.63574 9.86663 10.6667 9.86663Z" fill="white"/>
<path d="M10.6667 8.37313C10.8729 8.37313 11.04 8.20598 11.04 7.9998C11.04 7.79361 10.8729 7.62646 10.6667 7.62646C10.4605 7.62646 10.2933 7.79361 10.2933 7.9998C10.2933 8.20598 10.4605 8.37313 10.6667 8.37313Z" fill="#000088"/>
<path d="M12.5048 8.33936C12.5574 8.34628 12.6056 8.30928 12.6125 8.25671C12.6194 8.20415 12.5824 8.15593 12.5299 8.14901C12.4773 8.14208 12.4291 8.17909 12.4222 8.23165C12.4152 8.28422 12.4522 8.33244 12.5048 8.33936Z" fill="#000088"/>
<path d="M10.6667 9.86647L10.7307 8.74647L10.6667 8.21313L10.6027 8.74647L10.6667 9.86647Z" fill="#000088"/>
<path d="M12.3543 8.80348C12.4033 8.82377 12.4595 8.80051 12.4797 8.75152C12.5 8.70254 12.4768 8.64638 12.4278 8.62609C12.3788 8.6058 12.3226 8.62906 12.3024 8.67805C12.2821 8.72703 12.3053 8.78319 12.3543 8.80348Z" fill="#000088"/>
<path d="M10.1836 9.80277L10.5353 8.7375L10.6115 8.20577L10.4116 8.70437L10.1836 9.80277Z" fill="#000088"/>
<path d="M12.0888 9.21296C12.1309 9.24524 12.1911 9.2373 12.2234 9.19524C12.2557 9.15318 12.2477 9.09291 12.2057 9.06064C12.1636 9.02836 12.1034 9.0363 12.0711 9.07836C12.0388 9.12042 12.0467 9.18069 12.0888 9.21296Z" fill="#000088"/>
<path d="M9.73335 9.61642L10.3488 8.67847L10.56 8.18459L10.2379 8.61447L9.73335 9.61642Z" fill="#000088"/>
<path d="M11.7264 9.53972C11.7586 9.58179 11.8189 9.58972 11.861 9.55744C11.903 9.52517 11.911 9.4649 11.8787 9.42284C11.8464 9.38078 11.7861 9.37284 11.7441 9.40512C11.702 9.4374 11.6941 9.49766 11.7264 9.53972Z" fill="#000088"/>
<path d="M9.34675 9.31981L10.184 8.5731L10.5158 8.15072L10.0935 8.48259L9.34675 9.31981Z" fill="#000088"/>
<path d="M11.2917 9.76153C11.312 9.81052 11.3681 9.83378 11.4171 9.81349C11.4661 9.7932 11.4894 9.73704 11.4691 9.68806C11.4488 9.63907 11.3926 9.61581 11.3437 9.6361C11.2947 9.65639 11.2714 9.71255 11.2917 9.76153Z" fill="#000088"/>
<path d="M9.05009 8.93312L10.052 8.42854L10.4819 8.10645L9.98804 8.31769L9.05009 8.93312Z" fill="#000088"/>
<path d="M10.8145 9.86316C10.8214 9.91573 10.8696 9.95273 10.9222 9.94581C10.9747 9.93889 11.0117 9.89066 11.0048 9.8381C10.9979 9.78553 10.9497 9.74853 10.8971 9.75545C10.8445 9.76237 10.8075 9.81059 10.8145 9.86316Z" fill="#000088"/>
<path d="M8.86361 8.4829L9.96201 8.25484L10.4606 8.05498L9.92889 8.1312L8.86361 8.4829Z" fill="#000088"/>
<path d="M10.3272 9.83794C10.3202 9.89051 10.3572 9.93873 10.4098 9.94565C10.4624 9.95257 10.5106 9.91557 10.5175 9.863C10.5244 9.81044 10.4874 9.76221 10.4349 9.75529C10.3823 9.74837 10.3341 9.78537 10.3272 9.83794Z" fill="#000088"/>
<path d="M8.80002 7.99979L9.92002 8.06379L10.4534 7.99979L9.92002 7.93579L8.80002 7.99979Z" fill="#000088"/>
<path d="M9.86298 9.68734C9.84269 9.73632 9.86595 9.79248 9.91494 9.81277C9.96392 9.83306 10.0201 9.8098 10.0404 9.76081C10.0607 9.71183 10.0374 9.65567 9.98841 9.63538C9.93943 9.61509 9.88327 9.63835 9.86298 9.68734Z" fill="#000088"/>
<path d="M8.86363 7.51672L9.9289 7.86841L10.4606 7.94463L9.96203 7.74478L8.86363 7.51672Z" fill="#000088"/>
<path d="M9.45356 9.42217C9.42128 9.46423 9.42921 9.5245 9.47128 9.55677C9.51334 9.58905 9.5736 9.58112 9.60588 9.53905C9.63816 9.49699 9.63022 9.43673 9.58816 9.40445C9.5461 9.37217 9.48583 9.38011 9.45356 9.42217Z" fill="#000088"/>
<path d="M9.05007 7.06665L9.98802 7.68208L10.4819 7.89332L10.052 7.57122L9.05007 7.06665Z" fill="#000088"/>
<path d="M9.12683 9.05944C9.08476 9.09171 9.07683 9.15198 9.10911 9.19404C9.14138 9.2361 9.20165 9.24404 9.24371 9.21176C9.28577 9.17949 9.29371 9.11922 9.26143 9.07716C9.22915 9.0351 9.16889 9.02716 9.12683 9.05944Z" fill="#000088"/>
<path d="M9.34673 6.67988L10.0934 7.5171L10.5158 7.84897L10.1839 7.42659L9.34673 6.67988Z" fill="#000088"/>
<path d="M8.90502 8.62498C8.85603 8.64527 8.83277 8.70142 8.85306 8.75041C8.87335 8.79939 8.92951 8.82265 8.97849 8.80236C9.02748 8.78207 9.05074 8.72592 9.03045 8.67693C9.01016 8.62795 8.954 8.60469 8.90502 8.62498Z" fill="#000088"/>
<path d="M9.73333 6.38337L10.2379 7.38532L10.56 7.8152L10.3488 7.32132L9.73333 6.38337Z" fill="#000088"/>
<path d="M8.80328 8.14761C8.75072 8.15453 8.71371 8.20276 8.72064 8.25532C8.72756 8.30789 8.77578 8.34489 8.82834 8.33797C8.88091 8.33105 8.91791 8.28283 8.91099 8.23026C8.90407 8.17769 8.85585 8.14069 8.80328 8.14761Z" fill="#000088"/>
<path d="M10.1835 6.19691L10.4116 7.29531L10.6114 7.79391L10.5352 7.26218L10.1835 6.19691Z" fill="#000088"/>
<path d="M8.82853 7.66039C8.77597 7.65347 8.72774 7.69048 8.72082 7.74304C8.7139 7.79561 8.75091 7.84383 8.80347 7.85075C8.85604 7.85767 8.90426 7.82067 8.91118 7.7681C8.9181 7.71554 8.8811 7.66731 8.82853 7.66039Z" fill="#000088"/>
<path d="M10.6667 6.13329L10.6027 7.25329L10.6667 7.78662L10.7307 7.25329L10.6667 6.13329Z" fill="#000088"/>
<path d="M8.97903 7.19628C8.93005 7.17599 8.87389 7.19925 8.8536 7.24823C8.83331 7.29722 8.85657 7.35337 8.90556 7.37366C8.95454 7.39395 9.0107 7.37069 9.03099 7.32171C9.05127 7.27272 9.02801 7.21657 8.97903 7.19628Z" fill="#000088"/>
<path d="M11.1498 6.19699L10.7981 7.26226L10.7219 7.79398L10.9217 7.29539L11.1498 6.19699Z" fill="#000088"/>
<path d="M9.24455 6.78679C9.20248 6.75452 9.14222 6.76245 9.10994 6.80451C9.07767 6.84658 9.0856 6.90684 9.12766 6.93912C9.16973 6.97139 9.22999 6.96346 9.26227 6.9214C9.29454 6.87933 9.28661 6.81907 9.24455 6.78679Z" fill="#000088"/>
<path d="M11.6 6.38334L10.9846 7.32129L10.7733 7.81517L11.0954 7.38529L11.6 6.38334Z" fill="#000088"/>
<path d="M9.60699 6.46003C9.57471 6.41797 9.51445 6.41004 9.47239 6.44231C9.43032 6.47459 9.42239 6.53485 9.45467 6.57691C9.48694 6.61898 9.54721 6.62691 9.58927 6.59464C9.63133 6.56236 9.63927 6.5021 9.60699 6.46003Z" fill="#000088"/>
<path d="M11.9866 6.67995L11.1494 7.42665L10.8175 7.84903L11.2399 7.51716L11.9866 6.67995Z" fill="#000088"/>
<path d="M10.0417 6.23822C10.0214 6.18924 9.96522 6.16598 9.91623 6.18627C9.86725 6.20656 9.84399 6.26271 9.86428 6.3117C9.88457 6.36068 9.94073 6.38394 9.98971 6.36365C10.0387 6.34336 10.062 6.28721 10.0417 6.23822Z" fill="#000088"/>
<path d="M12.2833 7.06664L11.2813 7.57121L10.8514 7.8933L11.3453 7.68206L12.2833 7.06664Z" fill="#000088"/>
<path d="M10.5189 6.1366C10.512 6.08403 10.4637 6.04703 10.4112 6.05395C10.3586 6.06087 10.3216 6.10909 10.3285 6.16166C10.3355 6.21422 10.3837 6.25123 10.4362 6.24431C10.4888 6.23739 10.5258 6.18916 10.5189 6.1366Z" fill="#000088"/>
<path d="M12.4697 7.51686L11.3713 7.74492L10.8727 7.94477L11.4045 7.86855L12.4697 7.51686Z" fill="#000088"/>
<path d="M11.0062 6.16182C11.0131 6.10925 10.9761 6.06103 10.9236 6.05411C10.871 6.04719 10.8228 6.08419 10.8158 6.13675C10.8089 6.18932 10.8459 6.23754 10.8985 6.24446C10.9511 6.25138 10.9993 6.21438 11.0062 6.16182Z" fill="#000088"/>
<path d="M12.5333 7.99996L11.4133 7.93596L10.88 7.99996L11.4133 8.06396L12.5333 7.99996Z" fill="#000088"/>
<path d="M11.4704 6.31242C11.4907 6.26344 11.4674 6.20728 11.4184 6.18699C11.3694 6.1667 11.3133 6.18996 11.293 6.23894C11.2727 6.28793 11.296 6.34408 11.3449 6.36437C11.3939 6.38466 11.4501 6.3614 11.4704 6.31242Z" fill="#000088"/>
<path d="M12.4697 8.48304L11.4045 8.13134L10.8727 8.05512L11.3713 8.25498L12.4697 8.48304Z" fill="#000088"/>
<path d="M11.8798 6.57783C11.912 6.53577 11.9041 6.4755 11.8621 6.44323C11.82 6.41095 11.7597 6.41888 11.7274 6.46095C11.6952 6.50301 11.7031 6.56327 11.7452 6.59555C11.7872 6.62783 11.8475 6.61989 11.8798 6.57783Z" fill="#000088"/>
<path d="M12.2833 8.93335L11.3453 8.31792L10.8514 8.10668L11.2813 8.42878L12.2833 8.93335Z" fill="#000088"/>
<path d="M12.2065 6.94056C12.2486 6.90829 12.2565 6.84802 12.2242 6.80596C12.1919 6.7639 12.1317 6.75596 12.0896 6.78824C12.0476 6.82051 12.0396 6.88078 12.0719 6.92284C12.1042 6.9649 12.1644 6.97284 12.2065 6.94056Z" fill="#000088"/>
<path d="M11.9866 9.32012L11.2399 8.4829L10.8175 8.15103L11.1494 8.57341L11.9866 9.32012Z" fill="#000088"/>
<path d="M12.4283 7.37502C12.4773 7.35473 12.5006 7.29858 12.4803 7.24959C12.46 7.20061 12.4038 7.17735 12.3548 7.19764C12.3059 7.21793 12.2826 7.27408 12.3029 7.32307C12.3232 7.37205 12.3793 7.39531 12.4283 7.37502Z" fill="#000088"/>
<path d="M11.6 9.61663L11.0954 8.61468L10.7733 8.1848L10.9846 8.67868L11.6 9.61663Z" fill="#000088"/>
<path d="M12.53 7.85239C12.5826 7.84547 12.6196 7.79724 12.6127 7.74468C12.6058 7.69211 12.5575 7.65511 12.505 7.66203C12.4524 7.66895 12.4154 7.71717 12.4223 7.76974C12.4293 7.82231 12.4775 7.85931 12.53 7.85239Z" fill="#000088"/>
<path d="M11.1498 9.80309L10.9217 8.70469L10.7219 8.20609L10.7981 8.73782L11.1498 9.80309Z" fill="#000088"/>
</g>
<defs>
<clipPath id="clip0_1798_88946">
<rect width="21.3333" height="16" rx="2" fill="white"/>
</clipPath>
</defs>
</svg>
