<svg width="21" height="20" viewBox="0 0 21 20" fill="none" xmlns="http://www.w3.org/2000/svg">
<path d="M17.7929 8.13359C17.6295 8.16094 17.4835 8.25212 17.3873 8.38706C17.291 8.52199 17.2523 8.68964 17.2796 8.85312C17.3431 9.23211 17.375 9.61572 17.375 9.99999C17.3764 11.683 16.7579 13.3075 15.6375 14.5633C14.9404 13.5532 13.9603 12.7717 12.8203 12.3172C13.4326 11.8349 13.8795 11.1737 14.0987 10.4257C14.3178 9.67766 14.2985 8.87991 14.0433 8.14339C13.788 7.40687 13.3096 6.76819 12.6746 6.31616C12.0396 5.86413 11.2794 5.62123 10.5 5.62123C9.72047 5.62123 8.96036 5.86413 8.32532 6.31616C7.69028 6.76819 7.21189 7.40687 6.95667 8.14339C6.70145 8.87991 6.68208 9.67766 6.90127 10.4257C7.12045 11.1737 7.56729 11.8349 8.17965 12.3172C7.03966 12.7717 6.05951 13.5532 5.36246 14.5633C4.48333 13.5726 3.90908 12.3491 3.70874 11.0399C3.50841 9.73062 3.69052 8.39138 4.23319 7.18317C4.77586 5.97496 5.65597 4.94922 6.76771 4.2293C7.87945 3.50937 9.17548 3.1259 10.5 3.12499C10.8842 3.12493 11.2678 3.15681 11.6468 3.22031C11.8096 3.24598 11.9759 3.20636 12.1096 3.11006C12.2432 3.01376 12.3335 2.86857 12.3607 2.70607C12.3879 2.54358 12.3498 2.37691 12.2547 2.24235C12.1597 2.10778 12.0153 2.01618 11.8531 1.98749C10.1558 1.70196 8.41163 1.96322 6.87249 2.73357C5.33334 3.50391 4.07884 4.74347 3.2901 6.27327C2.50137 7.80307 2.21922 9.54396 2.48439 11.2446C2.74957 12.9452 3.54834 14.5175 4.76539 15.7346C5.98243 16.9516 7.55477 17.7504 9.25538 18.0156C10.956 18.2807 12.6969 17.9986 14.2267 17.2098C15.7565 16.4211 16.996 15.1666 17.7664 13.6275C18.5367 12.0883 18.798 10.3442 18.5125 8.64687C18.4851 8.48339 18.3939 8.33747 18.259 8.24122C18.1241 8.14496 17.9564 8.10624 17.7929 8.13359ZM7.99996 9.37499C7.99996 8.88054 8.14658 8.39719 8.42129 7.98607C8.69599 7.57495 9.08644 7.25451 9.54325 7.06529C10.0001 6.87608 10.5027 6.82657 10.9877 6.92303C11.4726 7.01949 11.9181 7.2576 12.2677 7.60723C12.6174 7.95686 12.8555 8.40232 12.9519 8.88727C13.0484 9.37222 12.9989 9.87489 12.8097 10.3317C12.6204 10.7885 12.3 11.179 11.8889 11.4537C11.4778 11.7284 10.9944 11.875 10.5 11.875C9.83692 11.875 9.20103 11.6116 8.73219 11.1428C8.26335 10.6739 7.99996 10.038 7.99996 9.37499ZM6.28746 15.4297C6.7396 14.7226 7.36246 14.1406 8.09865 13.7375C8.83483 13.3344 9.66064 13.1232 10.5 13.1232C11.3393 13.1232 12.1651 13.3344 12.9013 13.7375C13.6375 14.1406 14.2603 14.7226 14.7125 15.4297C13.508 16.3664 12.0258 16.8749 10.5 16.8749C8.97416 16.8749 7.49189 16.3664 6.28746 15.4297ZM19.0671 3.56718L16.5671 6.06718C16.5091 6.12529 16.4402 6.17139 16.3643 6.20284C16.2884 6.2343 16.2071 6.25049 16.125 6.25049C16.0428 6.25049 15.9615 6.2343 15.8856 6.20284C15.8097 6.17139 15.7408 6.12529 15.6828 6.06718L14.4328 4.81718C14.3747 4.75911 14.3286 4.69017 14.2972 4.6143C14.2658 4.53843 14.2496 4.45712 14.2496 4.37499C14.2496 4.29287 14.2658 4.21155 14.2972 4.13568C14.3286 4.05981 14.3747 3.99088 14.4328 3.93281C14.55 3.81553 14.7091 3.74965 14.875 3.74965C14.9571 3.74965 15.0384 3.76582 15.1143 3.79725C15.1901 3.82867 15.2591 3.87474 15.3171 3.93281L16.125 4.7414L18.1828 2.68281C18.2408 2.62474 18.3098 2.57867 18.3856 2.54725C18.4615 2.51582 18.5428 2.49965 18.625 2.49965C18.7071 2.49965 18.7884 2.51582 18.8643 2.54725C18.9401 2.57867 19.0091 2.62474 19.0671 2.68281C19.1252 2.74088 19.1713 2.80981 19.2027 2.88568C19.2341 2.96155 19.2503 3.04287 19.2503 3.12499C19.2503 3.20712 19.2341 3.28843 19.2027 3.3643C19.1713 3.44017 19.1252 3.50911 19.0671 3.56718Z" fill="white"/>
</svg>
